<svg width="256" height="256" viewBox="0 0 256 256" fill="none" xmlns="http://www.w3.org/2000/svg">
<circle fill="#5865f2" cx="128" cy="128" r="128"/>
<path fill="#fff" d="M172.05 87.56a105.16 105.16 0 0 0-26.23-8.07 73.23 73.23 0 0 0-3.36 6.83c-9.65-1.45-19.46-1.45-29.11 0a73.23 73.23 0 0 0-3.36-6.83 106.32 106.32 0 0 0-26.25 8.09c-16.6 24.56-21.1 48.51-18.85 72.12h0c9.72 7.18 20.6 12.65 32.17 16.15 2.6-3.5 4.91-7.22 6.89-11.11-3.76-1.4-7.39-3.14-10.85-5.18a122.86 122.86 0 0 0 2.66-2c20.37 9.58 43.95 9.58 64.32 0 .87.71 1.76 1.39 2.66 2-3.46 2.05-7.1 3.78-10.87 5.19 1.98 3.89 4.28 7.6 6.89 11.1a105.15 105.15 0 0 0 32.19-16.14h0c2.64-27.38-4.51-51.11-18.9-72.15zm-65.25 57.62c-6.27 0-11.45-5.69-11.45-12.69s5-12.74 11.43-12.74 11.57 5.74 11.46 12.74-5.05 12.69-11.44 12.69zm42.24 0c-6.28 0-11.44-5.69-11.44-12.69s5-12.74 11.44-12.74 11.54 5.74 11.43 12.74-5.04 12.69-11.43 12.69z"/>
<path fill="#8899a6" d="M142.03 189.18a9.84 9.84 0 0 1-7-2.9c-3.86-3.86-3.86-10.14 0-14l39.98-40.13a16.91 16.91 0 0 1-.29-3.14c0-9.69 7.89-17.58 17.58-17.58 1.53 0 3.53.91 4.23 2.6.53 1.28.18 2.66-.96 3.8l-5.81 5.81c-.26.71-.95 3.36 1.8 6.1 1.37 1.37 2.87 2.07 4.45 2.07.77 0 1.37-.17 1.66-.27l5.8-5.8c.99-.99 1.96-1.2 2.61-1.2.88 0 1.7.36 2.38 1.05a5.03 5.03 0 0 1 1.41 3.43c0 9.69-7.89 17.58-17.58 17.58-1.02 0-2.08-.1-3.14-.29l-40.13 39.99c-1.86 1.85-4.35 2.88-6.99 2.88zm.05-11.44a1.76 1.76 0 0 0-1.75 1.75c0 .96.78 1.75 1.75 1.75s1.75-.79 1.75-1.75c0-.97-.79-1.75-1.75-1.75z"/><path fill="#5865f2" d="M192.3 112.93c1.81 0 4.22 1.84 2.21 3.84l-6.01 6.01s-2 4.01 2.01 8.02c2 2.01 4.01 2.51 5.51 2.51s2.5-.5 2.5-.5l6.01-6.01c.54-.54 1.06-.76 1.55-.76 1.31 0 2.3 1.64 2.3 2.97 0 8.88-7.2 16.08-16.08 16.08-1.25 0-2.46-.16-3.63-.43l-40.7 40.56c-1.64 1.64-3.79 2.46-5.94 2.46s-4.3-.82-5.94-2.46c-3.28-3.28-3.28-8.6 0-11.88l40.55-40.71c-.27-1.17-.43-2.38-.43-3.62.01-8.88 7.2-16.08 16.09-16.08m-50.22 69.81a3.25 3.25 0 0 0 3.25-3.25c0-1.8-1.45-3.25-3.25-3.25a3.26 3.26 0 0 0-3.25 3.25 3.25 3.25 0 0 0 3.25 3.25m50.22-72.81c-10.52 0-19.08 8.56-19.08 19.08 0 .86.06 1.74.19 2.62l-39.44 39.59a11.41 11.41 0 0 0 0 16.11c2.16 2.15 5.02 3.34 8.06 3.34s5.91-1.18 8.06-3.34l39.59-39.44c.89.13 1.76.19 2.62.19 10.52 0 19.08-8.56 19.08-19.08 0-1.62-.71-3.34-1.85-4.48-.96-.96-2.18-1.49-3.45-1.49-.93 0-2.31.28-3.67 1.64l-5.53 5.53c-.21.05-.51.1-.86.1-1.17 0-2.31-.55-3.39-1.63-1.86-1.86-1.72-3.55-1.55-4.23l5.56-5.56c1.56-1.56 2.04-3.59 1.28-5.43-.97-2.31-3.56-3.52-5.62-3.52h0zm-50.22 69.81c-.14 0-.25-.11-.25-.25s.11-.25.25-.25.25.11.25.25-.11.25-.25.25h0z"/>
</svg>